<?xml version="1.0" encoding="UTF-8"?>
<svg id="_レイヤー_2" data-name="レイヤー_2" xmlns="http://www.w3.org/2000/svg" viewBox="0 0 357 357">
  <defs>
    <style>
      .cls-1 {
        stroke-width: 10px;
      }

      .cls-1, .cls-2, .cls-3, .cls-4 {
        fill: #fff;
        stroke: #31a969;
        stroke-miterlimit: 10;
      }

      .cls-5, .cls-6, .cls-7 {
        fill: none;
      }

      .cls-2 {
        stroke-width: 8.05px;
      }

      .cls-8 {
        letter-spacing: .09em;
      }

      .cls-6 {
        font-family: KozGoPr6N-Regular-90ms-RKSJ-H, 'Kozuka Gothic Pr6N';
        font-size: 35.4px;
        isolation: isolate;
      }

      .cls-6, .cls-7 {
        stroke: #7a361e;
      }

      .cls-9 {
        letter-spacing: .08em;
      }

      .cls-3 {
        stroke-width: 8.63px;
      }

      .cls-4 {
        stroke-width: 10.05px;
      }

      .cls-10 {
        letter-spacing: .09em;
      }

      .cls-7 {
        stroke-width: 9px;
      }
    </style>
  </defs>
  <g id="_レイヤー_2-2" data-name="_レイヤー_2">
    <g>
      <g>
        <ellipse class="cls-1" cx="179.5" cy="60.9" rx="30.2" ry="39.6"/>
        <path class="cls-3" d="M151.4,98.4c-25.7,10.6-31,69.3-31,69.3"/>
        <path class="cls-4" d="M207.5,98.1c40.5,31.5,31.3,72.8,31.3,72.8"/>
        <g>
          <ellipse class="cls-5" cx="59.48" cy="199.84" rx="30.8" ry="47.1" transform="translate(-140.43 259.08) rotate(-89.93)"/>
          <path class="cls-2" d="M175,211.9s-45.5,29-71,29-46.2-14.6-46.2-32.6,20.7-32.5,46.2-32.4,71,36,71,36Z"/>
          <path class="cls-2" d="M173.3,211.9s44.2-31,69.7-32.1c25.5-1.1,46.8,12.5,47.6,30.5s-19.4,33.3-44.9,34.4c-28.7,1.3-69-30.3-72.4-32.8h0Z"/>
        </g>
      </g>
      <circle class="cls-7" cx="178.5" cy="178.5" r="174"/>
      <text class="cls-6" transform="translate(92.52 288.88) scale(.95 1)"><tspan class="cls-10" x="0" y="0">Niwa </tspan><tspan class="cls-9" x="104.6" y="0">Y</tspan><tspan class="cls-8" x="127.9" y="0">oga</tspan></text>
    </g>
  </g>
</svg>